# xmcd
#
# Track frame offsets: 
#        150
#        9675
#        17379
#        29619
#        41379
#        51158
#        66638
#        76385
#        89535
#        100417
#        109972
#        123423
#        134141
#        145626
#        156381
#        171265
#
# Disc length: 2431 seconds
#
# Revision: 0
# Processed by: cddbd v1.5.2PL0 Copyright (c) Steve Scherf et al.
# Submitted via: ExactAudioCopy v1.0b3
#
DISCID=e4097d10
DTITLE=Sons of the Purple Sage - At Western Campries- San Antonio Rose
DYEAR=2007
DGENRE=Country
TTITLE0=Wagon Wheels
TTITLE1=Whoopee Ti Yi Yo
TTITLE2=Hank Williams - Howlin' at the Moon
TTITLE3=Hank Williams - Long Gone Lonesome Blues
TTITLE4=Hank Willams - Honky Tonkin' blues
TTITLE5=Streets of Laredo
TTITLE6=My Abode Hacienda
TTITLE7=Cool Water
TTITLE8=Tumbling Tumbleweeds
TTITLE9=Cimmaron
TTITLE10=Ridin' Down the Canyon
TTITLE11=Home on the Range
TTITLE12=Hank Williams - Kaw-Liga
TTITLE13=San Antonio Rose
TTITLE14=Red River Valley
TTITLE15=Ghost Riders in the Sky
EXTD=
EXTT0=
EXTT1=
EXTT2=
EXTT3=
EXTT4=
EXTT5=
EXTT6=
EXTT7=
EXTT8=
EXTT9=
EXTT10=
EXTT11=
EXTT12=
EXTT13=
EXTT14=
EXTT15=
PLAYORDER=
